<svg id="visual" viewBox="0 0 900 600" width="900" height="600" xmlns="http://www.w3.org/2000/svg" xmlns:xlink="http://www.w3.org/1999/xlink" version="1.1"><rect x="0" y="0" width="900" height="600" fill="#001220"></rect><defs><linearGradient id="grad1_0" x1="33.3%" y1="0%" x2="100%" y2="100%"><stop offset="20%" stop-color="#001220" stop-opacity="1"></stop><stop offset="80%" stop-color="#001220" stop-opacity="1"></stop></linearGradient></defs><defs><linearGradient id="grad2_0" x1="0%" y1="0%" x2="66.7%" y2="100%"><stop offset="20%" stop-color="#001220" stop-opacity="1"></stop><stop offset="80%" stop-color="#001220" stop-opacity="1"></stop></linearGradient></defs><g transform="translate(900, 0)"><path d="M0 486.7C-48.2 447.2 -96.4 407.7 -162.3 391.7C-228.1 375.7 -311.7 383.2 -344.2 344.2C-376.6 305.2 -358 219.7 -373.2 154.6C-388.5 89.5 -437.6 44.7 -486.7 0L0 0Z" fill="#0066FF"></path></g><g transform="translate(0, 600)"><path d="M0 -486.7C44.5 -436.3 89.1 -385.8 153.5 -370.5C217.9 -355.1 302.1 -374.8 344.2 -344.2C386.2 -313.6 386.1 -232.6 402.8 -166.8C419.5 -101.1 453.1 -50.5 486.7 0L0 0Z" fill="#0066FF"></path></g></svg>