<svg id="visual" viewBox="0 0 900 600" width="900" height="600" xmlns="http://www.w3.org/2000/svg" xmlns:xlink="http://www.w3.org/1999/xlink" version="1.1"><rect x="0" y="0" width="900" height="600" fill="#002233"></rect><path d="M852 600L852.3 585.7C852.7 571.3 853.3 542.7 853.2 514.2C853 485.7 852 457.3 852.2 428.8C852.3 400.3 853.7 371.7 853.2 343C852.7 314.3 850.3 285.7 849 257C847.7 228.3 847.3 199.7 850.2 171.2C853 142.7 859 114.3 861.3 85.8C863.7 57.3 862.3 28.7 861.7 14.3L861 0L900 0L900 14.3C900 28.7 900 57.3 900 85.8C900 114.3 900 142.7 900 171.2C900 199.7 900 228.3 900 257C900 285.7 900 314.3 900 343C900 371.7 900 400.3 900 428.8C900 457.3 900 485.7 900 514.2C900 542.7 900 571.3 900 585.7L900 600Z" fill="#0066FF" stroke-linecap="round" stroke-linejoin="miter"></path></svg>